<svg xmlns="http://www.w3.org/2000/svg" width="121.797" height="121.797" viewBox="0 0 121.797 121.797"><defs><style>.a{fill:#62d9e3;}.b{fill:#d3fcff;}.c,.e{fill:none;}.c{stroke:#d6d6d5;stroke-width:2px;}.d{stroke:none;}</style></defs><g transform="translate(-659.602 -2182.602)"><g transform="translate(699.08 2216.201)"><g transform="translate(4.33 3.464)"><path class="a" d="M740.193,354.578H726.338c-3.826,0-7.338-3.862-7.338-7.688V327.838c0-1.435,1.573-1.838,3.008-1.838h22.516c1.429,0,2.188.409,2.188,1.838v19.052C746.712,350.7,744,354.578,740.193,354.578Z" transform="translate(-719 -326)"/></g><g transform="translate(8.66 13.856)"><path class="b" d="M737.4,351.856h-7.794c-2.869,0-5.606-3.086-5.606-5.956v-6.928c0-.953,1.189-.972,2.142-.972h14.722c.957,0,1.322.016,1.322.972V345.9C742.186,348.769,740.269,351.856,737.4,351.856Z" transform="translate(-724 -338)"/></g><g transform="translate(13.856 32.042)"><path class="b" d="M738.2,366.794h-6.062c-.953,0-2.142-1.54-2.142-2.492v-4.33c0-.953,1.189-.972,2.142-.972H738.2c.957,0,1.322.016,1.322.972v4.33C739.526,365.259,739.161,366.794,738.2,366.794Z" transform="translate(-730 -359)"/></g><g transform="translate(0 0)"><path d="M736.06,353.176H722.2a8.5,8.5,0,0,1-8.2-8.554V325.57a3.609,3.609,0,0,1,3.874-3.57H740.39a3.633,3.633,0,0,1,3.92,3.57v19.052A8.518,8.518,0,0,1,736.06,353.176ZM717.874,324.6c-.384,0-1.276.094-1.276.972v19.052a5.867,5.867,0,0,0,5.607,5.956H736.06a5.962,5.962,0,0,0,5.651-5.956V325.57c0-.925-1.1-.972-1.321-.972Z" transform="translate(-714 -322)"/></g><g transform="translate(4.33 10.392)"><path d="M733.266,350.454h-7.794A6.743,6.743,0,0,1,719,343.632V336.7a2.744,2.744,0,0,1,3.008-2.7H736.73a2.769,2.769,0,0,1,3.053,2.7v6.928A6.764,6.764,0,0,1,733.266,350.454ZM722.008,336.6a.806.806,0,0,0-.431.085l.021,6.949a4.167,4.167,0,0,0,3.874,4.224h7.794a4.187,4.187,0,0,0,3.919-4.224V336.7c0-.028-.153-.106-.456-.106Z" transform="translate(-719 -334)"/></g><g transform="translate(9.526 28.578)"><path d="M734.07,365.392h-6.062A3.293,3.293,0,0,1,725,362.034V357.7a2.744,2.744,0,0,1,3.008-2.7h6.062a2.769,2.769,0,0,1,3.053,2.7v4.33A3.353,3.353,0,0,1,734.07,365.392Zm-6.062-7.794a.807.807,0,0,0-.431.085l.021,4.351c0,.345.287.76.422.76h6.046c.146,0,.46-.424.46-.76V357.7c0-.028-.153-.106-.456-.106Z" transform="translate(-725 -355)"/></g><g transform="translate(14.57 36.904)"><path d="M754.087,382.718a1.3,1.3,0,0,1-1.152-1.9c2.11-4.071,3.714-9.324,2.64-10.356-.11-.1-1.206-.939-6.154,1.889-5.41,3.091-9.875,3.786-13.273,2.063-4.582-2.324-5.288-8.112-5.315-8.357a1.3,1.3,0,0,1,2.581-.3h0c.005.047.59,4.662,3.923,6.343,2.57,1.294,6.2.617,10.8-2.009,2.91-1.663,7.033-3.628,9.242-1.505,2.994,2.875-.875,11-2.133,13.425A1.3,1.3,0,0,1,754.087,382.718Z" transform="translate(-730.824 -364.615)"/></g></g><g class="c" transform="translate(665.481 2188.481)"><circle class="d" cx="55.019" cy="55.019" r="55.019"/><circle class="e" cx="55.019" cy="55.019" r="54.019"/></g><g class="c" transform="translate(659.602 2182.602)"><circle class="d" cx="60.898" cy="60.898" r="60.898"/><circle class="e" cx="60.898" cy="60.898" r="59.898"/></g></g></svg>