<svg xmlns="http://www.w3.org/2000/svg" width="31.005" height="28.099" viewBox="0 0 31.005 28.099"><defs><style>.a{fill:#fff;stroke:#fff;stroke-width:0.5px;}</style></defs><g transform="translate(0.25 0.25)"><g transform="translate(0 3.389)"><path class="a" d="M363.1,516.868H337.919a2.667,2.667,0,0,1-2.663-2.663V495.321a2.666,2.666,0,0,1,2.663-2.663H363.1a2.666,2.666,0,0,1,2.663,2.663V514.2A2.667,2.667,0,0,1,363.1,516.868Zm-25.831-23.41a1.212,1.212,0,0,0-1.21,1.211v20.189a1.212,1.212,0,0,0,1.21,1.211H363.75a1.212,1.212,0,0,0,1.211-1.211V494.669a1.212,1.212,0,0,0-1.211-1.211Z" transform="translate(-335.256 -492.658)"/></g><g transform="translate(9.2 0)"><path class="a" d="M365.151,489.684c-.4,0-.074-.285-.074-.636v-2.69h-10.02v2.69c0,.351.327.636-.074.636a.686.686,0,0,1-.726-.636v-2.755a.686.686,0,0,1,.726-.636h10.168a.686.686,0,0,1,.726.636v2.755A.686.686,0,0,1,365.151,489.684Z" transform="translate(-354.256 -485.658)"/></g><g transform="translate(14.62 6.052)"><path class="a" d="M365.888,505.421a.684.684,0,0,1-.632-.726v-5.81a.638.638,0,1,1,1.264,0v5.81A.684.684,0,0,1,365.888,505.421Z" transform="translate(-365.256 -498.158)"/></g><g transform="translate(11.863 9.324)"><path class="a" d="M365.809,505.862h-5.326a.613.613,0,1,1,0-1.2h5.326a.613.613,0,1,1,0,1.2Z" transform="translate(-359.756 -504.658)"/></g><g transform="translate(4.358 15.663)"><g transform="translate(16.463)"><path class="a" d="M382.856,520.532h-3.874a.727.727,0,0,1-.726-.726v-2.421a.727.727,0,0,1,.726-.726h3.874a.727.727,0,0,1,.726.726v2.421A.727.727,0,0,1,382.856,520.532Zm-3.8-.8h3.726v-2.273h-3.726Z" transform="translate(-378.256 -516.658)"/></g><path class="a" d="M348.856,520.532h-3.874a.727.727,0,0,1-.726-.726v-2.421a.727.727,0,0,1,.726-.726h3.874a.727.727,0,0,1,.726.726v2.421A.727.727,0,0,1,348.856,520.532Zm-3.8-.8h3.726v-2.273h-3.726Z" transform="translate(-344.256 -516.658)"/></g><g transform="translate(0.242 15.178)"><path class="a" d="M365.05,517.458H336.482c-.4,0-.726.327-.726-.074a.727.727,0,0,1,.726-.726H365.05a.726.726,0,0,1,.726.726C365.776,517.785,365.451,517.458,365.05,517.458Z" transform="translate(-335.756 -516.658)"/></g></g></svg>